<mxfile host="Electron" modified="2025-02-28T20:01:44.993Z" agent="Mozilla/5.0 (Windows NT 10.0; Win64; x64) AppleWebKit/537.36 (KHTML, like Gecko) draw.io/24.6.4 Chrome/124.0.6367.207 Electron/30.0.6 Safari/537.36" etag="M2nTxv9ucMm9-NsqZBcZ" version="24.6.4" type="device">
  <diagram name="PÃ¡gina-1" id="MaiA0FZtxfFe9j8wPwau">
    <mxGraphModel dx="1050" dy="629" grid="0" gridSize="10" guides="1" tooltips="1" connect="1" arrows="1" fold="1" page="1" pageScale="1" pageWidth="1390" pageHeight="980" math="0" shadow="0">
      <root>
        <mxCell id="0" />
        <mxCell id="1" parent="0" />
        <mxCell id="bI0XWKCSHDyLHubmYi4J-1" value="" style="image;aspect=fixed;html=1;points=[];align=center;fontSize=12;image=img/lib/azure2/storage/Storage_Accounts_Classic.svg;" vertex="1" parent="1">
          <mxGeometry x="470" y="140" width="65" height="52" as="geometry" />
        </mxCell>
        <mxCell id="bI0XWKCSHDyLHubmYi4J-2" value="Storage Account" style="text;html=1;align=center;verticalAlign=middle;whiteSpace=wrap;rounded=0;" vertex="1" parent="1">
          <mxGeometry x="452.5" y="100" width="100" height="30" as="geometry" />
        </mxCell>
        <mxCell id="bI0XWKCSHDyLHubmYi4J-3" value="" style="verticalLabelPosition=bottom;html=1;verticalAlign=top;align=center;strokeColor=none;fillColor=#00BEF2;shape=mxgraph.azure.storage_blob;" vertex="1" parent="1">
          <mxGeometry x="280" y="240" width="50" height="45" as="geometry" />
        </mxCell>
        <mxCell id="bI0XWKCSHDyLHubmYi4J-8" style="edgeStyle=orthogonalEdgeStyle;rounded=0;orthogonalLoop=1;jettySize=auto;html=1;endArrow=none;endFill=0;" edge="1" parent="1" source="bI0XWKCSHDyLHubmYi4J-4" target="bI0XWKCSHDyLHubmYi4J-1">
          <mxGeometry relative="1" as="geometry" />
        </mxCell>
        <mxCell id="bI0XWKCSHDyLHubmYi4J-4" value="" style="verticalLabelPosition=bottom;html=1;verticalAlign=top;align=center;strokeColor=none;fillColor=#00BEF2;shape=mxgraph.azure.storage_blob;" vertex="1" parent="1">
          <mxGeometry x="670" y="240" width="50" height="45" as="geometry" />
        </mxCell>
        <mxCell id="bI0XWKCSHDyLHubmYi4J-5" value="Container Origem" style="text;html=1;align=center;verticalAlign=middle;whiteSpace=wrap;rounded=0;" vertex="1" parent="1">
          <mxGeometry x="275" y="210" width="60" height="30" as="geometry" />
        </mxCell>
        <mxCell id="bI0XWKCSHDyLHubmYi4J-6" value="Container Destino" style="text;html=1;align=center;verticalAlign=middle;whiteSpace=wrap;rounded=0;" vertex="1" parent="1">
          <mxGeometry x="666" y="210" width="60" height="30" as="geometry" />
        </mxCell>
        <mxCell id="bI0XWKCSHDyLHubmYi4J-7" style="edgeStyle=orthogonalEdgeStyle;rounded=0;orthogonalLoop=1;jettySize=auto;html=1;entryX=0.505;entryY=0.969;entryDx=0;entryDy=0;entryPerimeter=0;endArrow=none;endFill=0;" edge="1" parent="1" source="bI0XWKCSHDyLHubmYi4J-3" target="bI0XWKCSHDyLHubmYi4J-1">
          <mxGeometry relative="1" as="geometry" />
        </mxCell>
        <mxCell id="bI0XWKCSHDyLHubmYi4J-14" style="edgeStyle=orthogonalEdgeStyle;rounded=0;orthogonalLoop=1;jettySize=auto;html=1;" edge="1" parent="1" source="bI0XWKCSHDyLHubmYi4J-9" target="bI0XWKCSHDyLHubmYi4J-12">
          <mxGeometry relative="1" as="geometry" />
        </mxCell>
        <mxCell id="bI0XWKCSHDyLHubmYi4J-9" value="" style="image;aspect=fixed;html=1;points=[];align=center;fontSize=12;image=img/lib/azure2/databases/Data_Factory.svg;" vertex="1" parent="1">
          <mxGeometry x="485" y="460" width="68" height="68" as="geometry" />
        </mxCell>
        <mxCell id="bI0XWKCSHDyLHubmYi4J-10" value="Azure Data Factory" style="text;html=1;align=center;verticalAlign=middle;whiteSpace=wrap;rounded=0;" vertex="1" parent="1">
          <mxGeometry x="460" y="540" width="110" height="30" as="geometry" />
        </mxCell>
        <mxCell id="bI0XWKCSHDyLHubmYi4J-12" value="" style="sketch=0;outlineConnect=0;fontColor=#232F3E;gradientColor=none;fillColor=#7AA116;strokeColor=none;dashed=0;verticalLabelPosition=bottom;verticalAlign=top;align=center;html=1;fontSize=12;fontStyle=0;aspect=fixed;pointerEvents=1;shape=mxgraph.aws4.iot_analytics_pipeline;" vertex="1" parent="1">
          <mxGeometry x="469.29" y="380" width="59.43" height="32" as="geometry" />
        </mxCell>
        <mxCell id="bI0XWKCSHDyLHubmYi4J-13" value="Pipeline CopyBlob" style="text;html=1;align=center;verticalAlign=middle;whiteSpace=wrap;rounded=0;" vertex="1" parent="1">
          <mxGeometry x="520" y="382" width="80" height="30" as="geometry" />
        </mxCell>
        <mxCell id="bI0XWKCSHDyLHubmYi4J-32" style="edgeStyle=orthogonalEdgeStyle;rounded=0;orthogonalLoop=1;jettySize=auto;html=1;endArrow=none;endFill=0;" edge="1" parent="1" source="bI0XWKCSHDyLHubmYi4J-26">
          <mxGeometry relative="1" as="geometry">
            <mxPoint x="305" y="290" as="targetPoint" />
          </mxGeometry>
        </mxCell>
        <mxCell id="bI0XWKCSHDyLHubmYi4J-26" value="" style="html=1;verticalLabelPosition=bottom;align=center;labelBackgroundColor=#ffffff;verticalAlign=top;strokeWidth=2;strokeColor=#0080F0;shadow=0;dashed=0;shape=mxgraph.ios7.icons.data;" vertex="1" parent="1">
          <mxGeometry x="293" y="330" width="24" height="29.099999999999998" as="geometry" />
        </mxCell>
        <mxCell id="bI0XWKCSHDyLHubmYi4J-27" value="" style="html=1;verticalLabelPosition=bottom;align=center;labelBackgroundColor=#ffffff;verticalAlign=top;strokeWidth=2;strokeColor=#0080F0;shadow=0;dashed=0;shape=mxgraph.ios7.icons.data;" vertex="1" parent="1">
          <mxGeometry x="684" y="330" width="24" height="29.099999999999998" as="geometry" />
        </mxCell>
        <mxCell id="bI0XWKCSHDyLHubmYi4J-28" value="DataSet Origem" style="text;html=1;align=center;verticalAlign=middle;whiteSpace=wrap;rounded=0;" vertex="1" parent="1">
          <mxGeometry x="275" y="370" width="60" height="30" as="geometry" />
        </mxCell>
        <mxCell id="bI0XWKCSHDyLHubmYi4J-29" value="DataSet Destino" style="text;html=1;align=center;verticalAlign=middle;whiteSpace=wrap;rounded=0;" vertex="1" parent="1">
          <mxGeometry x="665" y="370" width="60" height="30" as="geometry" />
        </mxCell>
        <mxCell id="bI0XWKCSHDyLHubmYi4J-35" style="edgeStyle=orthogonalEdgeStyle;rounded=0;orthogonalLoop=1;jettySize=auto;html=1;" edge="1" parent="1" source="bI0XWKCSHDyLHubmYi4J-30">
          <mxGeometry relative="1" as="geometry">
            <mxPoint x="330" y="335" as="targetPoint" />
          </mxGeometry>
        </mxCell>
        <mxCell id="bI0XWKCSHDyLHubmYi4J-36" style="edgeStyle=orthogonalEdgeStyle;rounded=0;orthogonalLoop=1;jettySize=auto;html=1;" edge="1" parent="1" source="bI0XWKCSHDyLHubmYi4J-30">
          <mxGeometry relative="1" as="geometry">
            <mxPoint x="670" y="335" as="targetPoint" />
          </mxGeometry>
        </mxCell>
        <mxCell id="bI0XWKCSHDyLHubmYi4J-38" style="edgeStyle=orthogonalEdgeStyle;rounded=0;orthogonalLoop=1;jettySize=auto;html=1;exitX=0.5;exitY=1;exitDx=0;exitDy=0;endArrow=none;endFill=0;" edge="1" parent="1" source="bI0XWKCSHDyLHubmYi4J-30" target="bI0XWKCSHDyLHubmYi4J-12">
          <mxGeometry relative="1" as="geometry" />
        </mxCell>
        <mxCell id="bI0XWKCSHDyLHubmYi4J-30" value="" style="shape=collate;html=1;" vertex="1" parent="1">
          <mxGeometry x="488" y="315" width="40" height="40" as="geometry" />
        </mxCell>
        <mxCell id="bI0XWKCSHDyLHubmYi4J-34" style="edgeStyle=orthogonalEdgeStyle;rounded=0;orthogonalLoop=1;jettySize=auto;html=1;endArrow=none;endFill=0;" edge="1" parent="1">
          <mxGeometry relative="1" as="geometry">
            <mxPoint x="695" y="289" as="targetPoint" />
            <mxPoint x="695" y="329" as="sourcePoint" />
          </mxGeometry>
        </mxCell>
        <mxCell id="bI0XWKCSHDyLHubmYi4J-37" value="Trigger&lt;div&gt;CopyFolderActivity&lt;/div&gt;" style="text;html=1;align=center;verticalAlign=middle;whiteSpace=wrap;rounded=0;" vertex="1" parent="1">
          <mxGeometry x="440" y="280" width="130" height="35" as="geometry" />
        </mxCell>
      </root>
    </mxGraphModel>
  </diagram>
</mxfile>
